:SAMPLES-PER-SECOND 30
:FULLY-SPECIFIED
:DEGREES
166
root  -15.1494 34.8056 -7.63871 -175.877 2.36057 179.319
RightUpLeg  -6.53888 -7.384 0.887185
RightLeg  9.08141 0.483804 0.0467839
RightFoot  0.63834 0.00174898 0.149672
RightToes  -25.8444 -0.116377 -0.222072
Spine  -2.43358 0.189139 -0.0618512
Spine1  -4.93541 0.507209 0.530532
HEad  -63.87 -2.48865 5.04866
LeftShoulder1  -1.94126e-019 -3.10601e-018 -2.51263e-017
LeftArm  -12.0356 22.0142 -81.8988
LeftForeArm  30.5488 -20.0031 -3.43841
LeftHand  -0.474411 -1.91575 7.72655
RightShoulder  -4.96962e-017 0 -2.36833e-017
RightArm  -19.2726 -22.0283 79.0207
RightForeArm  54.4807 15.325 1.12244
RightHand  -0.579776 0.197708 -12.1022
LeftUpLeg  -6.04626 -4.97761 -1.63308
LeftLeg  9.97719 13.9574 1.52285
LeftFoot  0.382086 -0.000295876 0.250366
LeftToes  -17.0581 1.31424e-006 1.14295e-007
167
root  -15.1092 34.8267 -7.64675 -176.15 2.26102 179.184
RightUpLeg  -6.56798 -7.08042 0.761896
RightLeg  10.1651 -0.325476 -0.0359785
RightFoot  -3.05327 -0.0102323 0.17249
RightToes  -26.6211 -0.118173 -0.227809
Spine  -2.53311 0.24341 -0.19325
Spine1  -5.13338 0.603084 0.271694
HEad  -66.489 -2.45875 5.79542
LeftShoulder1  -1.94126e-019 -3.10601e-018 -2.51263e-017
LeftArm  -10.6351 22.4527 -81.6432
LeftForeArm  30.1255 -21.1928 -3.60529
LeftHand  -0.476786 -2.01019 7.67216
RightShoulder  -4.96962e-017 0 -2.36833e-017
RightArm  -19.898 -22.1539 79.1131
RightForeArm  55.4507 14.619 1.18247
RightHand  -0.589231 0.186307 -12.3219
LeftUpLeg  -5.86561 -5.22452 -1.76607
LeftLeg  10.5309 14.3687 1.70586
LeftFoot  -2.46682 -0.0139078 -0.48441
LeftToes  -15.7693 1.31424e-006 1.14295e-007
168
root  -15.0876 34.8735 -7.6536 -176.216 2.27246 178.937
RightUpLeg  -6.53288 -6.50769 0.544302
RightLeg  10.5889 -0.822056 -0.0985786
RightFoot  -5.72791 -0.0153376 0.245466
RightToes  -26.7048 -0.118475 -0.227432
Spine  -2.76717 0.349131 -0.350222
Spine1  -5.5985 0.799703 -0.0408896
HEad  -67.9607 -2.64848 6.17077
LeftShoulder1  -1.94126e-019 -3.10601e-018 -2.51263e-017
LeftArm  -8.93413 23.0145 -81.2054
LeftForeArm  29.6564 -22.1041 -3.7673
LeftHand  -0.459899 -2.12747 7.30018
RightShoulder  -4.96962e-017 0 -2.36833e-017
RightArm  -21.4033 -22.2955 79.0436
RightForeArm  57.3824 13.4186 1.31825
RightHand  -0.579268 -0.0774639 -12.6918
LeftUpLeg  -5.65438 -5.30119 -2.06354
LeftLeg  10.5662 14.6033 1.74213
LeftFoot  -5.13793 -0.0609849 -1.19762
LeftToes  -13.3413 1.31424e-006 1.14295e-007
169
root  -15.0823 34.9035 -7.64322 -176.073 2.27924 178.69
RightUpLeg  -6.69489 -6.32948 0.335961
RightLeg  10.8856 -1.00816 -0.12644
RightFoot  -7.91045 -0.0167513 0.308534
RightToes  -26.6218 -0.117714 -0.224607
Spine  -3.05466 0.420606 -0.475882
Spine1  -6.16985 0.929838 -0.291047
HEad  -68.5585 -2.73567 6.24415
LeftShoulder1  -1.94126e-019 -3.10601e-018 -2.51263e-017
LeftArm  -8.03187 23.5424 -80.7113
LeftForeArm  29.2492 -22.7223 -3.88465
LeftHand  -0.419012 -2.46485 6.40589
RightShoulder  -4.96962e-017 0 -2.36833e-017
RightArm  -23.0594 -22.3265 78.7285
RightForeArm  59.3109 12.1837 1.44977
RightHand  -0.595015 0.151194 -12.5174
LeftUpLeg  -5.7753 -5.05328 -2.35398
LeftLeg  10.7133 14.7861 1.80152
LeftFoot  -7.13485 -0.118928 -1.74589
LeftToes  -10.3113 1.31424e-006 1.14295e-007
170
root  -15.071 34.9118 -7.64895 -176.067 2.34183 178.646
RightUpLeg  -6.65932 -6.1495 0.315712
RightLeg  11.0543 -1.10469 -0.141959
RightFoot  -9.8987 -0.0160287 0.365031
RightToes  -25.9683 -0.116322 -0.222991
Spine  -3.25722 0.495767 -0.491358
Spine1  -6.57005 1.0747 -0.325521
HEad  -68.711 -2.71878 6.2439
LeftShoulder1  -1.94126e-019 -3.10601e-018 -2.51263e-017
LeftArm  -8.1846 23.6339 -80.4402
LeftForeArm  29.1811 -22.5927 -3.91824
LeftHand  -0.406034 -2.43995 6.23193
RightShoulder  -4.96962e-017 0 -2.36833e-017
RightArm  -24.4886 -22.0793 78.0716
RightForeArm  60.4911 11.008 1.52429
RightHand  -0.55796 -0.251877 -12.6263
LeftUpLeg  -5.84987 -4.83461 -2.38778
LeftLeg  11.0208 14.8288 1.88643
LeftFoot  -8.37713 -0.164431 -2.08342
LeftToes  -9.44603 1.31424e-006 1.14295e-007
